<svg width="178" height="60" viewBox="0 0 178 60" fill="none" xmlns="http://www.w3.org/2000/svg">
<path d="M20.5621 20.4851C20.6387 20.4476 20.7116 20.413 20.7852 20.3776C19.976 19.4094 19.9399 18.975 20.0857 18.7814C20.5812 18.1202 22.0229 17.4517 24.1249 17.4517C25.3074 17.4517 26.5429 17.6748 27.6981 18.0959C29.5764 18.7792 30.7662 19.2813 31.554 19.6134C32.3381 19.9425 32.8123 20.142 33.2857 20.2429C33.6701 20.3231 34.0117 20.3629 34.329 20.3629C34.5256 20.3629 34.7016 20.3438 34.8658 20.315C34.7701 20.1052 34.6714 19.8887 34.5639 19.6568C34.4071 19.3211 34.2326 18.9927 34.0419 18.6754C33.9108 18.6614 33.7695 18.6408 33.6185 18.6084C33.2923 18.5377 32.8727 18.3617 32.1761 18.0687C31.3729 17.7307 30.161 17.2205 28.2459 16.5232C26.9154 16.0373 25.4915 15.7825 24.1249 15.7825C21.7519 15.7825 19.7087 16.5424 18.7906 17.7653C17.9328 18.9073 18.5609 20.1995 19.3134 21.1802C19.7139 20.9291 20.1306 20.695 20.5621 20.4851Z" fill="#00AEEF"/>
<path d="M37.2438 18.354C37.2784 18.4284 37.3094 18.4976 37.3418 18.5675C37.7894 18.178 38.307 17.8062 38.6811 17.8062C38.7613 17.8062 38.8217 17.8268 38.8843 17.8769C39.9703 18.728 40.8354 21.992 39.5587 25.663C38.8909 27.5825 38.402 28.7981 38.0773 29.6036C37.7548 30.4076 37.5604 30.8921 37.4603 31.3788C37.3285 32.0341 37.3204 32.5568 37.3881 32.9883C37.5936 32.8904 37.8093 32.7858 38.0346 32.6768C38.3755 32.5112 38.6914 32.3323 38.9925 32.1445C39.0065 32.0164 39.0278 31.8758 39.0595 31.716C39.1272 31.3832 39.2995 30.9525 39.5874 30.2398C39.9173 29.4195 40.415 28.1811 41.0953 26.2234C42.5671 21.9949 41.6085 17.9108 39.879 16.5523C39.527 16.2755 39.1243 16.1356 38.6811 16.1356C37.9205 16.1356 37.179 16.5678 36.5562 17.0663C36.8065 17.4808 37.0399 17.9108 37.2438 18.354Z" fill="#00AEEF"/>
<path d="M39.3088 35.4168C39.23 35.4543 39.1593 35.4889 39.085 35.5243C39.8941 36.4917 39.9302 36.9254 39.7844 37.1198C39.2882 37.781 37.848 38.451 35.7445 38.451C34.5635 38.451 33.3287 38.2264 32.1728 37.806C30.2953 37.1227 29.1054 36.6213 28.3176 36.29C27.5328 35.9579 27.0601 35.7584 26.5837 35.6583C26.2155 35.5802 25.8864 35.5419 25.5772 35.5419C25.3666 35.5419 25.1818 35.5648 25.0088 35.5964C25.103 35.8033 25.2017 36.0198 25.307 36.2451C25.4645 36.583 25.6449 36.9092 25.8364 37.2288C25.9667 37.242 26.1029 37.2612 26.2524 37.2936C26.5785 37.362 26.9997 37.5387 27.6962 37.8332C28.498 38.1712 29.7107 38.6814 31.6257 39.3787C32.9547 39.8632 34.3801 40.1187 35.7445 40.1187C37.8053 40.1187 40.1629 39.3581 41.0803 38.1359C41.9373 36.9932 41.3093 35.7002 40.5575 34.7203C40.157 34.9728 39.7402 35.2062 39.3088 35.4168Z" fill="#00AEEF"/>
<path d="M22.6263 37.548C22.5865 37.4611 22.5497 37.3816 22.5107 37.2962C22.0365 37.7291 21.5484 38.1377 21.245 38.1377C21.2126 38.1377 21.1302 38.1377 20.9859 38.0258C19.9006 37.1739 19.0369 33.9108 20.3129 30.2389C20.9807 28.3195 21.4696 27.1017 21.7943 26.2969C22.1175 25.4951 22.3134 25.0099 22.4113 24.5247C22.5438 23.8679 22.5519 23.3452 22.4842 22.9137C22.2773 23.0124 22.0623 23.1162 21.837 23.2259C21.4946 23.3908 21.1802 23.5734 20.8784 23.7626C20.8658 23.8885 20.8445 24.0284 20.8128 24.1853C20.7458 24.5181 20.5728 24.948 20.2857 25.6608C19.9558 26.4817 19.4566 27.7216 18.7748 29.6786C17.3045 33.9086 18.2631 37.992 19.9934 39.3497C20.3792 39.6537 20.8011 39.8076 21.245 39.8076C22.0085 39.8076 22.6572 39.3688 23.3007 38.8092C23.0555 38.4035 22.8288 37.9816 22.6263 37.548Z" fill="#00AEEF"/>
<path d="M18.1456 29.4513C18.1773 29.3607 18.2068 29.2783 18.2377 29.1899C17.0059 29.1133 16.693 28.9859 16.6429 28.6031C16.464 27.2152 18.1081 24.2833 21.5495 22.6098C23.3489 21.7343 24.5365 21.2293 25.3236 20.8943C26.107 20.5607 26.5775 20.359 26.9832 20.0866C27.5361 19.7155 27.9057 19.3481 28.1553 18.991C27.9404 18.91 27.7136 18.8268 27.4743 18.7399C27.1363 18.6169 26.7903 18.5131 26.4428 18.427C26.3426 18.5109 26.2263 18.5978 26.0879 18.6913C25.8096 18.8783 25.3906 19.0572 24.6956 19.3532C23.8945 19.6941 22.6855 20.2102 20.8493 21.1019C16.8859 23.0295 14.7396 26.61 15.0253 28.821C15.2263 30.3827 16.5332 30.7206 17.751 30.8296C17.86 30.3665 17.9888 29.907 18.1456 29.4513Z" fill="#00AEEF"/>
<path d="M28.4695 15.8805C28.5491 15.9085 28.6256 15.9372 28.7029 15.9652C28.7994 14.7069 29.0733 14.377 29.3096 14.3439C29.3737 14.335 29.4407 14.3314 29.5121 14.3314C31.1069 14.3314 33.7236 16.2552 35.1667 19.3653C36.0215 21.2075 36.5178 22.4231 36.8447 23.2278C37.1709 24.0274 37.366 24.5104 37.634 24.9249C37.9926 25.4838 38.3452 25.8593 38.6898 26.1133C38.7664 25.8976 38.8459 25.6737 38.9284 25.4359C39.0558 25.0685 39.1581 24.7092 39.2428 24.355C39.1632 24.2557 39.0837 24.143 38.9983 24.0105C38.8157 23.7241 38.6405 23.2963 38.3519 22.5858C38.0191 21.7663 37.5147 20.5279 36.6408 18.6482C34.8354 14.7591 31.6208 12.6615 29.5121 12.6615C29.37 12.6615 29.2301 12.6703 29.0961 12.688C27.7038 12.8765 27.2539 14.2356 27.1067 15.4704C27.5683 15.5823 28.0248 15.7185 28.4695 15.8805Z" fill="#00AEEF"/>
<path d="M44.8461 27.0808C44.662 25.6554 43.336 25.1937 42.127 25.0435C42.0188 25.5162 41.8877 25.9867 41.725 26.452C41.6978 26.5286 41.6728 26.603 41.6462 26.6773C42.8729 26.776 43.1961 27.0565 43.2285 27.2995C43.406 28.6874 41.7626 31.6207 38.3212 33.2935C36.5232 34.1675 35.3356 34.674 34.5493 35.0091C33.7659 35.3433 33.2946 35.5443 32.8882 35.8175C32.3345 36.1871 31.9664 36.5545 31.7168 36.9131C31.9318 36.9926 32.1578 37.0765 32.3971 37.1627C32.7351 37.2871 33.0804 37.3894 33.4301 37.4756C33.5295 37.3917 33.6451 37.3055 33.7835 37.2113C34.0618 37.0257 34.4823 36.8461 35.178 36.5501C35.9776 36.2085 37.1881 35.6923 39.0222 34.8014C42.9841 32.8746 45.1311 29.2933 44.8461 27.0808Z" fill="#00AEEF"/>
<path d="M31.4021 40.0232C31.3211 39.9937 31.246 39.9657 31.168 39.9378C31.0715 41.1953 30.7969 41.5274 30.5606 41.5591C30.4987 41.5672 30.428 41.5723 30.3588 41.5723C28.7633 41.5723 26.148 39.6462 24.7042 36.5384C23.8486 34.6984 23.3539 33.4806 23.0262 32.6766C22.6993 31.8763 22.5042 31.3925 22.2377 30.9773C21.8761 30.4162 21.5176 30.0481 21.1767 29.8007C21.1016 30.0127 21.0235 30.2329 20.9411 30.4678C20.813 30.8366 20.7165 31.1981 20.6318 31.5538C20.7077 31.6502 20.7872 31.7621 20.8726 31.8939C21.0559 32.1796 21.2304 32.6081 21.5213 33.3201C21.8533 34.1388 22.3577 35.3765 23.2287 37.2548C25.0355 41.1431 28.2501 43.2415 30.3588 43.2422C30.5016 43.2422 30.6408 43.2319 30.7733 43.2135C32.1664 43.0257 32.6162 41.6673 32.7635 40.4333C32.3033 40.3199 31.8468 40.1866 31.4021 40.0232Z" fill="#00AEEF"/>
<path d="M67.4247 15.1274H68.9002L68.1713 12.4304H68.1536L67.4247 15.1274ZM67.1059 16.3025L66.723 17.7427H65.1099L67.3607 11.0911H69.0011L71.2423 17.7427H69.6026L69.2102 16.3025H67.1059Z" fill="white"/>
<path d="M80.2451 16.4944H81.3385V19.2002H79.8806V17.7424H74.8423V11.0916H76.3907V16.4944H78.696V11.0916H80.2451V16.4944Z" fill="white"/>
<path d="M90.0398 17.7427H88.5275V13.6607H88.5091L86.1493 17.7427H84.637V11.0911H86.1493V15.1731H86.1677L88.5275 11.0911H90.0398V17.7427Z" fill="white"/>
<path d="M95.3474 16.0112C95.6604 16.3757 96.0992 16.5583 96.6639 16.5583C97.2286 16.5583 97.6674 16.3757 97.9804 16.0112C98.2933 15.6467 98.4494 15.1152 98.4494 14.4164C98.4494 13.7184 98.2933 13.1868 97.9804 12.8224C97.6674 12.4579 97.2286 12.2753 96.6639 12.2753C96.0992 12.2753 95.6604 12.4579 95.3474 12.8224C95.0345 13.1868 94.8777 13.7184 94.8777 14.4164C94.8777 15.1152 95.0345 15.6467 95.3474 16.0112ZM94.2084 11.9204C94.8188 11.3064 95.6375 11.0001 96.6639 11.0001C97.6903 11.0001 98.509 11.3064 99.1194 11.9204C99.7298 12.5338 100.035 13.3658 100.035 14.4164C100.035 15.4678 99.7298 16.3006 99.1194 16.9139C98.509 17.5272 97.6903 17.8335 96.6639 17.8335C95.6375 17.8335 94.8188 17.5272 94.2084 16.9139C93.598 16.3006 93.2925 15.4678 93.2925 14.4164C93.2925 13.3658 93.598 12.5338 94.2084 11.9204Z" fill="white"/>
<path d="M107.142 14.8727H104.836V17.7427H103.287V11.0919H104.836V13.6976H107.142V11.0919H108.691V17.7427H107.142V14.8727Z" fill="white"/>
<path d="M114.212 15.1274H115.688L114.959 12.4304H114.94L114.212 15.1274ZM113.893 16.3025L113.51 17.7427H111.897L114.148 11.0911H115.788L118.029 17.7427H116.389L115.998 16.3025H113.893Z" fill="white"/>
<path d="M126.731 17.7422H125.182V12.3394H123.605V14.5077C123.605 15.1512 123.56 15.6755 123.468 16.0789C123.378 16.4839 123.217 16.8115 122.986 17.0633C122.755 17.3152 122.469 17.4978 122.129 17.6097C121.789 17.7223 121.346 17.7967 120.799 17.8335L120.69 16.6304C121.067 16.6061 121.344 16.5443 121.524 16.4434C121.703 16.344 121.836 16.1489 121.924 15.8603C122.013 15.5724 122.056 15.1306 122.056 14.535V11.0907H126.731V17.7422Z" fill="white"/>
<path d="M131.915 14.6631V16.5951C132.116 16.637 132.307 16.6584 132.49 16.6584C133.315 16.6584 133.728 16.3006 133.728 15.5834C133.728 15.2735 133.624 15.0334 133.415 14.8633C133.205 14.6933 132.897 14.6086 132.49 14.6086C132.283 14.6086 132.091 14.6263 131.915 14.6631ZM130.394 11.0914H131.915V13.5513C132.134 13.5152 132.377 13.4968 132.644 13.4968C133.465 13.4968 134.089 13.6794 134.517 14.0439C134.945 14.4076 135.159 14.9215 135.159 15.5834C135.159 16.3609 134.94 16.9308 134.503 17.2916C134.065 17.6531 133.358 17.8335 132.38 17.8335C131.675 17.8335 131.013 17.7886 130.394 17.6973V11.0914Z" fill="white"/>
<path d="M142.311 14.8727H140.006V17.7427H138.458V11.0919H140.006V13.6976H142.311V11.0919H143.86V17.7427H142.311V14.8727Z" fill="white"/>
<path d="M149.382 15.1274H150.857L150.128 12.4304H150.111L149.382 15.1274ZM149.062 16.3025L148.68 17.7427H147.067L149.318 11.0911H150.958L153.199 17.7427H151.56L151.167 16.3025H149.062Z" fill="white"/>
<path d="M159.595 12.2302C159.431 12.1933 159.24 12.1757 159.022 12.1757C158.183 12.1757 157.764 12.4915 157.764 13.1225C157.764 13.445 157.876 13.6954 158.101 13.8743C158.325 14.0539 158.651 14.1437 159.075 14.1437H159.595V12.2302ZM159.595 15.2828H159.14C158.885 15.2828 158.696 15.3277 158.575 15.4197C158.453 15.5103 158.35 15.6833 158.265 15.9381L157.636 17.7427H156.042L156.734 15.8747C156.934 15.3277 157.196 14.9669 157.518 14.7902V14.7725C157.129 14.6326 156.817 14.4 156.579 14.0753C156.343 13.7498 156.224 13.3846 156.224 12.9775C156.224 12.3458 156.448 11.8583 156.894 11.5145C157.34 11.1721 158.019 11.0006 158.93 11.0006C159.726 11.0006 160.455 11.0455 161.116 11.1368V17.7427H159.595V15.2828Z" fill="white"/>
<path d="M64.8391 26.7004V28.0949H67.4308V29.3017H64.8391V30.9672H67.6179V32.249H63.248V25.4186H67.6179V26.7004H64.8391Z" fill="white"/>
<path d="M72.0703 29.7044H72.0519L70.9291 32.249H69.1797L71.0226 28.787L69.2268 25.4186H70.9762L72.0895 27.8704H72.1086L73.2211 25.4186H74.9337L73.1372 28.787L74.9808 32.249H73.1931L72.0703 29.7044Z" fill="white"/>
<path d="M80.5947 29.3017H78.2276V32.249H76.6372V25.4186H78.2276V28.0949H80.5947V25.4186H82.1851V32.249H80.5947V29.3017Z" fill="white"/>
<path d="M85.9044 30.4712C86.2254 30.8452 86.676 31.0322 87.2562 31.0322C87.8364 31.0322 88.287 30.8452 88.608 30.4712C88.929 30.0964 89.0902 29.5508 89.0902 28.8337C89.0902 28.1165 88.929 27.5702 88.608 27.1962C88.287 26.8222 87.8364 26.6351 87.2562 26.6351C86.676 26.6351 86.2254 26.8222 85.9044 27.1962C85.5826 27.5702 85.4221 28.1165 85.4221 28.8337C85.4221 29.5508 85.5826 30.0964 85.9044 30.4712ZM84.7344 26.2699C85.361 25.6397 86.2018 25.3246 87.2562 25.3246C88.3098 25.3246 89.1506 25.6397 89.7779 26.2699C90.4045 26.9002 90.7182 27.7543 90.7182 28.8337C90.7182 29.9131 90.4045 30.7671 89.7779 31.3974C89.1506 32.0269 88.3098 32.3428 87.2562 32.3428C86.2018 32.3428 85.361 32.0269 84.7344 31.3974C84.1078 30.7671 83.7942 29.9131 83.7942 28.8337C83.7942 27.7543 84.1078 26.9002 84.7344 26.2699Z" fill="white"/>
<path d="M97.9688 32.2493H96.3784V26.7007H94.7593V28.9279C94.7593 29.5891 94.7129 30.1273 94.6194 30.5418C94.5252 30.9571 94.3603 31.2936 94.1232 31.552C93.8861 31.8112 93.5931 31.9982 93.2441 32.1138C92.8943 32.2294 92.4393 32.306 91.8775 32.3428L91.7656 31.108C92.1522 31.083 92.4371 31.0189 92.6219 30.9159C92.8053 30.8128 92.9429 30.614 93.0335 30.3173C93.1233 30.0213 93.169 29.567 93.169 28.9559V25.4188H97.9688V32.2493Z" fill="white"/>
<path d="M101.688 30.4712C102.01 30.8452 102.46 31.0322 103.04 31.0322C103.62 31.0322 104.071 30.8452 104.392 30.4712C104.713 30.0964 104.874 29.5508 104.874 28.8337C104.874 28.1165 104.713 27.5702 104.392 27.1962C104.071 26.8222 103.62 26.6351 103.04 26.6351C102.46 26.6351 102.01 26.8222 101.688 27.1962C101.366 27.5702 101.207 28.1165 101.207 28.8337C101.207 29.5508 101.366 30.0964 101.688 30.4712ZM100.519 26.2699C101.145 25.6397 101.986 25.3246 103.04 25.3246C104.094 25.3246 104.934 25.6397 105.562 26.2699C106.188 26.9002 106.502 27.7543 106.502 28.8337C106.502 29.9131 106.188 30.7671 105.562 31.3974C104.934 32.0269 104.094 32.3428 103.04 32.3428C101.986 32.3428 101.145 32.0269 100.519 31.3974C99.8915 30.7671 99.5786 29.9131 99.5786 28.8337C99.5786 27.7543 99.8915 26.9002 100.519 26.2699Z" fill="white"/>
<path d="M109.749 26.7476V32.249H108.111V25.4186H112.387V26.7476H109.749Z" fill="white"/>
<path d="M119.685 32.249H118.132V28.0574H118.113L115.69 32.249H114.136V25.4186H115.69V29.6109H115.708L118.132 25.4186H119.685V32.249Z" fill="white"/>
<path d="M125.195 29.929C124.884 30.0851 124.509 30.1631 124.073 30.1631C123.212 30.1631 122.588 29.9791 122.202 29.6109C121.815 29.2428 121.622 28.6501 121.622 27.8336V25.4193H123.174V27.637C123.174 28.1295 123.255 28.4557 123.417 28.6148C123.58 28.7738 123.901 28.8533 124.382 28.8533C124.681 28.8533 124.953 28.7848 125.195 28.6471V25.4193H126.787V32.249H125.195V29.929Z" fill="white"/>
<path d="M130.408 26.7004V28.0949H132.999V29.3017H130.408V30.9672H133.186V32.249H128.816V25.4186H133.186V26.7004H130.408Z" fill="white"/>
<path d="M138.285 32.3428C137.2 32.3428 136.331 32.0276 135.679 31.3974C135.028 30.7671 134.702 29.9131 134.702 28.8337C134.702 27.7425 135.018 26.8847 135.651 26.2611C136.284 25.6375 137.162 25.3253 138.285 25.3253C139.14 25.3253 139.879 25.5374 140.503 25.9614L140.054 27.1218C139.524 26.7787 138.987 26.6064 138.444 26.6064C137.79 26.6064 137.273 26.8038 136.896 27.1969C136.518 27.5894 136.33 28.1357 136.33 28.8337C136.33 29.5199 136.526 30.0625 136.919 30.4616C137.313 30.8614 137.821 31.0609 138.444 31.0609C138.987 31.0609 139.524 30.8894 140.054 30.5463L140.503 31.7066C139.879 32.1307 139.14 32.3428 138.285 32.3428Z" fill="white"/>
<path d="M143.936 25.4186V28.3475H143.955L146.022 25.4186H147.866L145.433 28.6935L147.959 32.249H146.116L143.955 29.0396H143.936V32.249H142.345V25.4186H143.936Z" fill="white"/>
<path d="M151.431 29.5638H152.947L152.198 26.7939H152.179L151.431 29.5638ZM151.103 30.7706L150.71 32.249H149.054L151.365 25.4186H153.049L155.351 32.249H153.667L153.265 30.7706H151.103Z" fill="white"/>
<path d="M160.188 26.5885C160.019 26.551 159.823 26.5326 159.599 26.5326C158.738 26.5326 158.308 26.8565 158.308 27.5059C158.308 27.8358 158.423 28.0927 158.654 28.2775C158.884 28.4616 159.218 28.5529 159.654 28.5529H160.188V26.5885ZM160.188 29.7229H159.721C159.458 29.7229 159.265 29.7692 159.14 29.8635C159.015 29.957 158.909 30.1344 158.822 30.3965L158.177 32.249H156.539L157.25 30.331C157.456 29.7692 157.724 29.3989 158.055 29.2178V29.1986C157.655 29.0558 157.334 28.8172 157.091 28.483C156.848 28.1494 156.726 27.7739 156.726 27.3557C156.726 26.7071 156.956 26.2064 157.414 25.8537C157.872 25.5018 158.569 25.3251 159.505 25.3251C160.322 25.3251 161.071 25.3722 161.751 25.4657V32.249H160.188V29.7229Z" fill="white"/>
<path d="M75.6551 48.0722H73.7025V41.2601H71.7153V43.9939C71.7153 44.806 71.6579 45.4665 71.543 45.976C71.4282 46.4847 71.2249 46.8985 70.9341 47.2159C70.6425 47.5347 70.2832 47.7637 69.8547 47.905C69.4255 48.0471 68.8666 48.1414 68.1767 48.187L68.0391 46.6703C68.514 46.6401 68.8644 46.5613 69.0905 46.4354C69.3165 46.3088 69.4851 46.0636 69.5963 45.6999C69.7067 45.3361 69.7627 44.7795 69.7627 44.0285V39.6867H75.6551V48.0722Z" fill="white"/>
<path d="M87.6035 48.0728H85.6973V42.9262H85.6738L82.6992 48.0728H80.7922V39.6873H82.6992V44.8331H82.722L85.6973 39.6873H87.6035V48.0728Z" fill="white"/>
<path d="M98.9032 42.9379H98.8797L97.4101 46.154H95.6408L94.1705 42.9379H94.1476V48.0728H92.2981V39.6873H94.2971L96.514 44.6262H96.5369L98.7538 39.6873H100.798V48.0728H98.9032V42.9379Z" fill="white"/>
<path d="M105.493 39.6873H112.304V48.0728H110.352V41.2607H107.446V48.0728H105.493V39.6873Z" fill="white"/>
<path d="M124.656 48.0728H122.749V42.9262H122.726L119.75 48.0728H117.844V39.6873H119.75V44.8331H119.774L122.749 39.6873H124.656V48.0728Z" fill="white"/>
<path d="M132.652 44.7757H134.513L133.595 41.3756H133.571L132.652 44.7757ZM132.25 46.2578L131.768 48.0728H129.735L132.572 39.6873H134.64L137.466 48.0728H135.398L134.904 46.2578H132.25Z" fill="white"/>
<path d="M144.561 46.4997H147.053V41.2618H145.537C145.537 42.7631 145.476 43.8292 145.354 44.4602C145.231 45.0927 144.967 45.7723 144.561 46.4997ZM142.516 46.4997C142.983 45.7951 143.292 45.1177 143.441 44.4668C143.591 43.816 143.665 42.7476 143.665 41.2618V39.6884H148.96V46.4997H149.983V49.9116H148.18V48.0739H143.722V49.9116H141.919V46.4997H142.516Z" fill="white"/>
<path d="M157.354 44.7757H159.215L158.297 41.3756H158.273L157.354 44.7757ZM156.952 46.2578L156.47 48.0728H154.437L157.274 39.6873H159.341L162.167 48.0728H160.1L159.606 46.2578H156.952Z" fill="white"/>
<path d="M61.4565 11.8524V11.0919H59.8536V13.1365L61.4565 11.8524ZM56.0647 17.7427H57.6676V15.5331H59.8536V17.7427H61.4565V12.9996L59.8757 14.263H57.6963L56.0647 15.5913V17.7427ZM57.6676 11.0919V13.1365L56.0647 14.4456V11.0919H57.6676Z" fill="white"/>
<path d="M57.5629 41.8216L57.5725 40.1031L54.9734 41.8083L57.5629 41.8216ZM57.973 43.2558C57.973 42.8443 58.0599 42.4798 58.2344 42.1617C58.4081 41.8451 58.6459 41.5992 58.9456 41.4247C59.2453 41.2502 59.5803 41.1626 59.9499 41.1626C60.3195 41.1626 60.6545 41.2502 60.9542 41.4247C61.2546 41.5992 61.4917 41.8451 61.6662 42.1617C61.7619 42.3377 61.8289 42.5284 61.8723 42.7324L63.5334 41.3997L63.5437 41.3894C63.5142 41.3349 63.5238 41.3518 63.4914 41.2988C63.1395 40.7201 62.655 40.2673 62.0372 39.9389C61.4202 39.6113 60.7237 39.4471 59.9499 39.4471C59.1761 39.4471 58.4803 39.6113 57.8625 39.9389C57.2455 40.2673 56.7611 40.7201 56.4084 41.2988C56.0565 41.8783 55.8805 42.5299 55.8805 43.2558C55.8805 43.8839 56.013 44.4567 56.2766 44.9751L57.9936 43.5828C57.9803 43.4767 57.973 43.3685 57.973 43.2558ZM64.02 44.4368C64.02 45.1628 63.8441 45.8144 63.4914 46.3931C63.1395 46.9726 62.655 47.4261 62.0372 47.7538C61.4202 48.0814 60.7237 48.2456 59.9499 48.2456C59.1761 48.2456 58.4803 48.0814 57.8625 47.7538C57.2455 47.4261 56.7611 46.9726 56.4084 46.3931C56.4025 46.3836 56.4003 46.3836 56.3981 46.3784L58.026 45.0583C58.0687 45.2666 58.1364 45.352 58.2344 45.5302C58.4081 45.8475 58.6459 46.0935 58.9456 46.268C59.2453 46.4425 59.5803 46.5301 59.9499 46.5301C60.3195 46.5301 60.6545 46.4425 60.9542 46.268C61.2546 46.0935 61.4917 45.8475 61.6662 45.5302C61.8399 45.2129 61.9275 44.8484 61.9275 44.4368C61.9275 44.3198 61.9187 44.3176 61.904 44.2079L63.6232 42.8281C63.8875 43.3457 64.02 43.8095 64.02 44.4368Z" fill="white"/>
<path d="M57.9525 32.249H59.5679V29.4401L57.9525 30.6277V32.249ZM61.324 25.4186L59.5503 26.7196V28.2451L57.9349 29.4401V26.7196H56.1531V25.4186H61.324Z" fill="white"/>
</svg>
